<svg xmlns="http://www.w3.org/2000/svg" viewBox="0 0 1920 1080" fill="none">
  <defs>
    <pattern id="smallGrid" width="50" height="50" patternUnits="userSpaceOnUse">
      <path d="M 50 0 L 0 0 0 50" fill="none" stroke="#ECECEC" stroke-width="0.5"/>
    </pattern>
    <pattern id="grid" width="100" height="100" patternUnits="userSpaceOnUse">
      <rect width="100" height="100" fill="url(#smallGrid)"/>
      <path d="M 100 0 L 0 0 0 100" fill="none" stroke="#ECECEC" stroke-width="0.8"/>
    </pattern>
  </defs>
  <rect width="1920" height="1080" fill="url(#grid)" opacity="0.5"/>
  <g stroke="#ECECEC" stroke-width="1" fill="none" opacity="0.4">
    <line x1="0" y1="200" x2="1920" y2="200"/>
    <line x1="0" y1="400" x2="1920" y2="400"/>
    <line x1="0" y1="600" x2="1920" y2="600"/>
    <line x1="0" y1="800" x2="1920" y2="800"/>
    <line x1="400" y1="0" x2="400" y2="1080"/>
    <line x1="800" y1="0" x2="800" y2="1080"/>
    <line x1="1200" y1="0" x2="1200" y2="1080"/>
    <line x1="1600" y1="0" x2="1600" y2="1080"/>
  </g>
  <g stroke="#ECECEC" stroke-width="0.6" fill="none" opacity="0.3">
    <rect x="100" y="100" width="200" height="150" rx="1"/>
    <rect x="400" y="100" width="300" height="150" rx="1"/>
    <rect x="800" y="100" width="250" height="150" rx="1"/>
    <rect x="1150" y="100" width="350" height="150" rx="1"/>
    <rect x="1600" y="100" width="220" height="150" rx="1"/>
    <rect x="100" y="350" width="180" height="120" rx="1"/>
    <rect x="350" y="350" width="280" height="120" rx="1"/>
    <rect x="700" y="350" width="320" height="120" rx="1"/>
    <rect x="1100" y="350" width="280" height="120" rx="1"/>
    <rect x="1450" y="350" width="370" height="120" rx="1"/>
    <rect x="100" y="580" width="250" height="140" rx="1"/>
    <rect x="420" y="580" width="230" height="140" rx="1"/>
    <rect x="720" y="580" width="300" height="140" rx="1"/>
    <rect x="1080" y="580" width="270" height="140" rx="1"/>
    <rect x="1420" y="580" width="400" height="140" rx="1"/>
    <rect x="100" y="800" width="220" height="130" rx="1"/>
    <rect x="380" y="800" width="260" height="130" rx="1"/>
    <rect x="700" y="800" width="350" height="130" rx="1"/>
    <rect x="1120" y="800" width="240" height="130" rx="1"/>
    <rect x="1420" y="800" width="400" height="130" rx="1"/>
  </g>
  <g stroke="#ECECEC" stroke-width="0.4" fill="none" opacity="0.25">
    <line x1="200" y1="100" x2="200" y2="250"/>
    <line x1="550" y1="100" x2="550" y2="250"/>
    <line x1="925" y1="100" x2="925" y2="250"/>
    <line x1="1325" y1="100" x2="1325" y2="250"/>
    <line x1="1710" y1="100" x2="1710" y2="250"/>
    <line x1="190" y1="350" x2="190" y2="470"/>
    <line x1="490" y1="350" x2="490" y2="470"/>
    <line x1="860" y1="350" x2="860" y2="470"/>
    <line x1="1240" y1="350" x2="1240" y2="470"/>
    <line x1="1635" y1="350" x2="1635" y2="470"/>
    <line x1="225" y1="580" x2="225" y2="720"/>
    <line x1="535" y1="580" x2="535" y2="720"/>
    <line x1="870" y1="580" x2="870" y2="720"/>
    <line x1="1215" y1="580" x2="1215" y2="720"/>
    <line x1="1620" y1="580" x2="1620" y2="720"/>
    <line x1="210" y1="800" x2="210" y2="930"/>
    <line x1="510" y1="800" x2="510" y2="930"/>
    <line x1="875" y1="800" x2="875" y2="930"/>
    <line x1="1240" y1="800" x2="1240" y2="930"/>
    <line x1="1620" y1="800" x2="1620" y2="930"/>
  </g>
</svg>
